<svg xmlns="http://www.w3.org/2000/svg" width="700" height="360"><rect width="100%" height="100%" fill="white"/><text x="350" y="25" text-anchor="middle" font-size="18">Relative abundance heatmap</text><text x="145" y="83" text-anchor="end" font-size="8">4b5eeb30</text><text x="145" y="128" text-anchor="end" font-size="8">fe30ff0f</text><text x="145" y="173" text-anchor="end" font-size="8">d29fe3c7</text><text x="145" y="218" text-anchor="end" font-size="8">868528ca</text><text x="145" y="263" text-anchor="end" font-size="8">154709e1</text><g fill="#222"><rect x="150" y="60" width="80" height="38"/><rect x="330" y="60" width="80" height="38"/><rect x="420" y="60" width="80" height="38"/><rect x="510" y="60" width="80" height="38"/></g><g fill="#eee"><rect x="240" y="60" width="80" height="38"/><rect x="330" y="105" width="80" height="38"/><rect x="420" y="105" width="80" height="38"/><rect x="510" y="105" width="80" height="38"/><rect x="150" y="150" width="80" height="38"/><rect x="240" y="150" width="80" height="38"/><rect x="330" y="150" width="80" height="38"/><rect x="420" y="150" width="80" height="38"/><rect x="510" y="150" width="80" height="38"/></g><g fill="#888"><rect x="150" y="195" width="80" height="38"/><rect x="240" y="195" width="80" height="38"/><rect x="330" y="195" width="80" height="38"/><rect x="420" y="195" width="80" height="38"/><rect x="510" y="195" width="80" height="38"/></g><g fill="#ccc"><rect x="150" y="240" width="80" height="38"/><rect x="240" y="240" width="80" height="38"/><rect x="330" y="240" width="80" height="38"/><rect x="420" y="240" width="80" height="38"/><rect x="510" y="240" width="80" height="38"/></g><text x="190" y="310" font-size="9">L1S105</text><text x="280" y="310" font-size="9">L1S140</text><text x="370" y="310" font-size="9">L1S208</text><text x="460" y="310" font-size="9">L1S257</text><text x="550" y="310" font-size="9">L1S281</text></svg>